<?xml version="1.0" encoding="UTF-8"?>
<svg id="Layer_9" data-name="Layer 9" xmlns="http://www.w3.org/2000/svg" viewBox="0 0 808.61 808.61">
  <defs>
    <style>
      .cls-1 {
        stroke-dasharray: 0 0 1 19.94;
      }

      .cls-1, .cls-2 {
        fill: none;
        stroke: #000;
        stroke-linecap: round;
        stroke-miterlimit: 10;
        stroke-width: 15px;
      }

      .cls-3 {
        fill: #000;
        stroke-width: 0px;
      }
    </style>
  </defs>
  <g id="Layer_9-2" data-name="Layer 9">
    <g>
      <path class="cls-3" d="M591.79,542.97l-25.46,235.75c-1.65,15.24-14.51,26.78-29.83,26.78h-264.39c-15.32,0-28.19-11.55-29.83-26.78l-25.45-235.75c-.64-5.89,3.98-11.03,9.9-11.03h355.15c5.93,0,10.54,5.14,9.9,11.03Z"/>
      <path class="cls-3" d="M592.98,33.47v306.43c0,2.76-2.24,4.99-4.99,4.99h-19.56c-2.76,0-4.99-2.24-4.99-4.99V121.58c0-11.07-8.97-20.04-20.04-20.04h-278.18c-11.07,0-20.05,8.98-20.05,20.05v218.31c0,2.76-2.24,4.99-4.99,4.99h-19.55c-2.76,0-4.99-2.24-4.99-4.99V33.47c0-16.77,13.6-30.37,30.37-30.37h316.59c16.78,0,30.38,13.6,30.38,30.37Z"/>
    </g>
  </g>
  <path class="cls-2" d="M512.04,280.59c6.77,3.23,12.26,9.1,14.81,16.78,4.97,14.97-3.14,31.13-18.11,36.1-8.51,2.82-17.4,1.42-24.4-3.06"/>
  <g>
    <path class="cls-2" d="M340.02,336.96c0-.17,0-.33,0-.5"/>
    <path class="cls-1" d="M342.71,316.76c8.86-32.48,38.57-56.35,73.86-56.35,20.27,0,38.7,7.88,52.4,20.74"/>
    <path class="cls-2" d="M475.76,288.4c.11.13.21.26.32.39"/>
  </g>
  <path class="cls-3" d="M626.64,365.79h-80.96c-5.5,0-9.97-4.46-9.97-9.97v-50.22l-19.67,25.09-30.52,5.25v19.88c0,5.5-4.46,9.97-9.97,9.97H181.98c-12.42,0-22.48,12.94-22.48,28.89v87.45c0,15.96,10.07,28.89,22.48,28.89h444.67c12.41,0,22.47-12.94,22.47-28.89v-87.45c0-15.96-10.07-28.89-22.47-28.89ZM512.21,477.88h-215.82c-21.8,0-39.47-17.67-39.47-39.47s17.67-39.47,39.47-39.47h215.82c21.8,0,39.47,17.67,39.47,39.47s-17.67,39.47-39.47,39.47Z"/>
</svg>