<?xml version="1.0" encoding="UTF-8"?>
<svg id="Layer_4" data-name="Layer 4" xmlns="http://www.w3.org/2000/svg" viewBox="0 0 1024 1024">
  <defs>
    <style>
      .cls-1 {
        stroke-width: 0px;
      }
    </style>
  </defs>
  <path class="cls-1" d="M82.31,308.67s27.36-27.09,55.27-36.12c23.82-7.71,44.65-7.04,66.06-6.68,5.13.09,9.52-3.22,11.43-7.99.65-1.62,1.86-2.84,4.05-2.84h75.52c2.3,0,3.66,1.14,4.46,2.62,2.2,4.09,6.41,6.68,11.05,6.68h78.61c9.3,0,9.85,13.68,9.85,13.68v42.68c0,16.96-18.06,16.96-18.06,16.96h-64.03c-16.69,0-16.96,15.32-16.96,15.32v294.41c0,7.8-2.8,11.9-5.61,14.06-2.08,1.6-4.69,2.36-7.31,2.36h-60.14c-6.89,0-10.64-4.24-12.63-8.18-1.47-2.9-2.14-6.14-2.14-9.4v-294.08s1.44-14.23-15.32-14.23-34.75-3.42-58.01,24.63c0,0-8.21,10.94-18.61,2.19s-30.37-30.37-38.31-38.85c-7.93-8.48.82-17.24.82-17.24Z"/>
  <path class="cls-1" d="M15.82,344.38c-10.4,13.54,2.74,26.54,2.74,26.54l50.07,54.18s10.53,10.94,23.53.27,17.1-13.82,29.82-26.54c9.69-9.69,7.3-18.01,5.34-19.93s-8.28.16-12.72-4.29c0,0-33.98-36.11-42.23-44.83s-1.19-14.59-3.12-16.67c-2.35-2.51-19.27-4.4-30.26,6.59-3.01,3.01-12.77,11.13-23.17,24.67Z"/>
  <path class="cls-1" d="M257.61,179.16c-14.59,0-17.24,6.57-20.43,6.57-7.11,0-22.71-6.57-28.06-6.57-4.69,0-20.46,2.55-20.46,20.07s13.5,20.61,18.24,20.61c4.83,0,26.48-6.66,29.73-6.66,2.83,0,7.66,2.74,7.66,7.21v18.24h-6.75s-4.38-.14-4.38,4.2,4.29,4.29,4.29,4.29h19.61s.27,0,.27,0h19.61s4.29.09,4.29-4.29-4.38-4.2-4.38-4.2h-6.75v-18.24c0-4.47,4.83-7.21,7.66-7.21,3.26,0,24.9,6.66,29.73,6.66s18.24-3.1,18.24-20.61-15.78-20.07-20.46-20.07c-5.35,0-20.94,6.57-28.06,6.57-3.19,0-5.84-6.57-20.43-6.57h.82Z"/>
  <path class="cls-1" d="M654.45,598.89v-150.85s6.38-80.26-115.1-80.26-136.43,53.72-145.2,81.72c-4.74,15.14,17.88,14.59,17.88,14.59h39.77c18.79,0,17.88-4.93,19.34-8.76,1.46-3.83,9.49-35.02,55.45-35.02,0,0,48.89-1.46,48.89,35.02s-41.95,36.66-67.13,39.77-125.68,5.47-125.68,85.92,66.75,90.48,92.3,90.48c77.53,0,85.92-25.9,97.77-25.9s8.94,18.97,25.17,18.97h47.47c2.86,0,5.71-.5,8.35-1.6,2.74-1.14,5.47-2.96,5.47-5.7,0-22.62-4.74-27.91-4.74-58.37ZM510.8,620.18c-24.22,0-48.43-9.3-48.43-41.59s45.17-37.55,64.3-41.59c19.43-4.1,44.95-12.57,47.88-.43.96,3.99,14.92,83.61-63.75,83.61Z"/>
  <path class="cls-1" d="M882.37,367.22c-61.15,0-72.51,32.01-82.09,32.01s-5.2-23.08-18.33-23.08h-51.26c-13.32,0-13.86,15.96-13.86,15.96v360.08c0,12.86,13.95,13.95,13.95,13.95h49.52s15.87,1.64,15.87-17.24v-94.67s-.18-9.03,3.65-11.04c6.48-3.83,11.67,2.83,11.67,2.83,0,0,26.83,26.54,74.15,26.54s126.41-32.83,126.41-146.93-68.54-158.42-129.69-158.42ZM865.5,613.48c-35.57,0-71.87-24.81-71.87-87.56s24.08-98.14,67.86-98.14,71.14,35.02,71.14,94.12-27.73,91.57-67.13,91.57Z"/>
</svg>