<?xml version="1.0" encoding="UTF-8"?>
<svg id="Layer_4" data-name="Layer 4" xmlns="http://www.w3.org/2000/svg" viewBox="0 0 1024 1024">
  <defs>
    <style>
      .cls-1 {
        stroke-width: 0px;
      }
    </style>
  </defs>
  <path class="cls-1" d="M654.45,598.89v-150.85s6.38-80.26-115.1-80.26-136.43,53.72-145.2,81.72c-4.74,15.14,17.88,14.59,17.88,14.59h39.77c18.79,0,17.88-4.93,19.34-8.76,1.46-3.83,9.49-35.02,55.45-35.02,0,0,48.89-1.46,48.89,35.02s-41.95,36.66-67.13,39.77-125.68,5.47-125.68,85.92,66.75,90.48,92.3,90.48c77.53,0,85.92-25.9,97.77-25.9s8.94,18.97,25.17,18.97h47.47c2.86,0,5.71-.5,8.35-1.6,2.74-1.14,5.47-2.96,5.47-5.7,0-22.62-4.74-27.91-4.74-58.37h0ZM510.8,620.18c-24.22,0-48.43-9.3-48.43-41.59s45.17-37.55,64.3-41.59c19.43-4.1,44.95-12.57,47.88-.43.96,3.99,14.92,83.61-63.75,83.61h0Z"/>
  <path class="cls-1" d="M882.37,367.22c-61.15,0-72.51,32.01-82.09,32.01s-5.2-23.08-18.33-23.08h-51.26c-13.32,0-13.86,15.96-13.86,15.96v360.08c0,12.86,13.95,13.95,13.95,13.95h49.52s15.87,1.64,15.87-17.24v-94.67s-.18-9.03,3.65-11.04c6.48-3.83,11.67,2.83,11.67,2.83,0,0,26.83,26.54,74.15,26.54s126.41-32.83,126.41-146.93-68.54-158.42-129.69-158.42h0ZM865.5,613.48c-35.57,0-71.87-24.81-71.87-87.56s24.08-98.14,67.86-98.14,71.14,35.02,71.14,94.12-27.73,91.57-67.13,91.57h0Z"/>
  <path class="cls-1" d="M380.7,337.73s18.07,0,18.07-16.97v-42.7s-.55-13.69-9.85-13.69h-78.64c-4.64,0-8.85-2.59-11.05-6.68-.8-1.48-2.16-2.62-4.46-2.62h-75.55c-2.19,0-3.4,1.22-4.05,2.84-1.89,4.71-6.19,8-11.23,8-.07,0-.14,0-.2,0-5.19-.09-10.35-.19-15.52-.19-16.17,0-32.51,1.03-50.57,6.88-27.92,9.03-55.29,36.14-55.29,36.14v-.02s-8.76,8.76-.83,17.25c7.94,8.48,27.92,30.11,38.33,38.87,2.97,2.5,5.77,3.39,8.24,3.39,6.19,0,10.38-5.58,10.38-5.58,18.71-22.56,34.01-24.77,48-24.77,3.41,0,6.75.13,10.03.13,16.77,0,15.33,14.24,15.33,14.24v294.2c0,3.26.67,6.5,2.14,9.4,1.99,3.94,5.74,8.18,12.64,8.18h60.17c2.62,0,5.23-.76,7.31-2.36,2.81-2.16,5.61-6.26,5.61-14.07v-294.53s.27-15.33,16.97-15.33h64.06Z"/>
  <path class="cls-1" d="M109.13,377.54c-10.24-8.62-27.89-27.52-37.37-37.67-.88-.94-1.68-1.8-2.39-2.56-6.04-6.46-8.67-14.45-7.59-22.6.25-1.88-1.27-3.52-3.16-3.41-6.14.38-13.73,2.57-19.61,8.46-3.01,3.01-12.78,11.13-23.18,24.68h0c-10.4,13.56,2.74,26.56,2.74,26.56l50.09,54.2s10.53,10.94,23.54.27,17.11-13.83,29.83-26.55c3.8-3.8,5.75-7.4,6.59-10.48.49-1.81-.83-3.57-2.7-3.73-5.06-.43-10.91-2.24-16.78-7.18Z"/>
  <path class="cls-1" d="M206.98,219.86c4.83,0,26.49-6.66,29.74-6.66,2.83,0,7.66,2.74,7.66,7.21v15.01c0,1.67,1.36,3.03,3.03,3.03h19.77c1.67,0,3.02-1.35,3.02-3.02v-15.02c0-4.47,4.83-7.21,7.66-7.21,3.26,0,24.91,6.66,29.74,6.66s18.25-3.1,18.25-20.62-15.79-20.08-20.47-20.08c-5.35,0-20.95,6.57-28.07,6.57-3.16,0-5.8-6.44-20.02-6.57-14.23.13-16.86,6.57-20.02,6.57-7.11,0-22.72-6.57-28.07-6.57-4.69,0-20.47,2.55-20.47,20.08s13.51,20.62,18.25,20.62Z"/>
</svg>